<svg id="レイヤー_1" data-name="レイヤー 1" xmlns="http://www.w3.org/2000/svg" viewBox="0 0 300 47.01"><defs><style>.cls-1{fill:#e62e8b;}</style></defs><title>logo</title><path class="cls-1" d="M34.77,1c.68,0,2.16-.21,2.16.63,0,7.89-11.47,16.14-11.47,17.2s13,9.58,13,25.09c0,1.43-1.42,1.11-2.9,1.11H27.27c-1.69,0-1.48-1.54-1.48-2.12-.34-12-6.28-17.68-7.43-17.68-1.62,0-7.43,3.92-7.43,6.93,0,2.11,2.3,11.54,2.3,12,0,.64-.54.9-1.28.9H3.71C2,45,0,46,0,26.16,0,0,3.51,1,4.66,1h6.82c.88,0,2.29-.16,2.29.84,0,.05-3.31,7.62-3.31,15.25,0,.58-.2,3.33,1.15,3.33s11.48-9.11,14.72-18c.47-1.17.4-1.38,2-1.43h6.48"/><path class="cls-1" d="M52.25,45c-1.69,0-3.71,1-3.71-18.84C48.54,0,52,1,53.19,1h7.29c.88,0,2.57-.16,2.57.84,0,.53-3.58,9.37-3.58,19.59a81.43,81.43,0,0,0,3.37,23c0,.53-.4.59-1,.59H52.25"/><path class="cls-1" d="M96.06,1c12.56,0,15.73,5.4,15.73,9.9,0,8.47-10.13,11.06-10.13,12.55s12.15,8.41,12.15,20.91c0,.58-.27.69-1.69.69H104.5c-1.22,0-3.31.16-3.31-.69,0-6-5.4-16.72-9.31-16.72-2,0-7,2.17-7,5.13,0,4,2.5,11.28,2.5,11.65,0,.9-1.69.64-2.36.64H77.23c-1.69,0-3.71,1-3.71-18.84C73.52,0,77,1,78.17,1H96.06m4.79,10.79c0-3.33-4-4.55-7.63-4.55-6.14,0-8.84,1.75-8.78,10.91,0,1.11.07,3.23,2.09,3.23C88.84,21.34,100.86,16.63,100.86,11.76Z"/><path class="cls-1" d="M124.89,45c-3.58.11-2.5-1.75-2.83-12.49,0-7.09,3.71-31.54,5.67-31.54h26.6c.81,0,3.24-.16,3.24.9,0,.43-4.32,7.84-5.2,7.84-1.15,0-3.17-2.49-9.79-2.49-4.66,0-9.59,2.17-9.59,7.25,0,1.11.27,3,2.16,3,2.16,0,7-2.49,12.63-2.49.81,0,3,.21,3,1.11,0,.05-3.78,8.68-4.59,8.68s-3.24-1.06-5.87-1.06c-3.44,0-8.44,2-8.44,7.2,0,4.23,2.84,7.3,8.51,7.3,6.68,0,10.8-3.49,12.42-3.49,1,0,5.54,8.94,5.54,9.47,0,1-1.69.8-2.5.8h-31"/><path class="cls-1" d="M170.6,45c-1.69,0-3.71,1-3.71-18.84C166.88,0,170.39,1,171.54,1h7.29c.88,0,2.56-.16,2.56.84,0,.53-3.58,9.37-3.58,19.59a81.38,81.38,0,0,0,3.38,23c0,.53-.41.59-1,.59H170.6"/><path class="cls-1" d="M195.58,45c-1.69,0-3.71,1-3.71-18.84C191.86,0,195.37,1,196.52,1h6.21c2.63,0,3.58,0,6.89,3.55,6.34,6.83,6.75,10.69,8.1,10.69,1,0,1.42-3.87,8.57-10.69C230.07.91,231.08,1,233.72,1H239c1.15,0,4.66-1,4.66,25.19,0,19.85-2,18.84-3.71,18.84h-8.64c-.81,0-2.43.16-2.43-.8a81.48,81.48,0,0,0,3.85-24.08c0-1.11.2-7.62-2-7.62-2,0-4.52,5.24-5.2,6.51-5.67,10.85-3.38,15.83-7.9,15.83-5.67,0-3.44-5-9.45-15.83-.68-1.17-2.9-6.51-5-6.51S201,19,201,20.13c0,13.81,4.26,23.34,4.26,24.08,0,1-1.62.8-2.43.8h-7.22"/><path class="cls-1" d="M276.49,0A23.51,23.51,0,1,0,300,23.51,23.5,23.5,0,0,0,276.49,0m12.57,26.95L276.49,39.52,263.93,26.95a8.89,8.89,0,0,1,12.57-12.57,8.89,8.89,0,1,1,12.57,12.57Z"/></svg>